<svg width="891" height="891" xmlns="http://www.w3.org/2000/svg" xmlns:xlink="http://www.w3.org/1999/xlink" xml:space="preserve" overflow="hidden"><defs><clipPath id="clip0"><rect x="2863" y="148" width="891" height="891"/></clipPath></defs><g clip-path="url(#clip0)" transform="translate(-2863 -148)"><path d="M3392 872C3295.31 872 3204.4 834.349 3136.03 765.975 3067.65 697.602 3030 606.695 3030 510.001 3030 413.307 3067.65 322.401 3136.03 254.028 3204.4 185.655 3295.31 148 3392 148 3488.69 148 3579.6 185.655 3647.97 254.028 3716.35 322.401 3754 413.307 3754 510.001 3754 606.695 3716.35 697.602 3647.97 765.975 3579.6 834.349 3488.69 872 3392 872ZM3392 213.919C3312.92 213.919 3238.56 244.717 3182.64 300.639 3126.72 356.562 3095.92 430.915 3095.92 510.001 3095.92 589.085 3126.72 663.44 3182.64 719.362 3238.56 775.284 3312.92 806.082 3392 806.082 3471.09 806.082 3545.44 775.284 3601.36 719.362 3657.28 663.44 3688.08 589.085 3688.08 510.001 3688.08 430.915 3657.28 356.562 3601.36 300.639 3545.44 244.716 3471.09 213.919 3392 213.919Z" fill="#F59E0B" fill-rule="evenodd"/><path d="M3144 814.08 2926.17 1032.66C2917.77 1041.11 2904.11 1041.11 2895.69 1032.66L2869.31 1006.19C2860.9 997.747 2860.9 984.038 2869.31 975.605L3087.13 757C3095.53 767.403 3104.54 777.421 3114.09 787.016 3123.65 796.605 3133.64 805.641 3144 814.08Z" fill="#D4D4D4" fill-rule="evenodd"/><path d="M3591 692.13C3588.3 695.079 3585.52 697.984 3582.67 700.829 3531.61 751.881 3463.72 780 3391.5 780 3319.28 780 3251.39 751.881 3200.32 700.829 3197.48 697.984 3194.69 695.079 3192 692.13 3196.61 645.48 3216.22 610.401 3235.59 595.881 3279.97 562.607 3337.05 548 3337.05 548L3363.49 611.761 3384.19 572.569 3372.74 554.396C3372.98 554.536 3380.79 557.355 3391.5 557.355 3402.2 557.355 3410.02 554.536 3410.26 554.396L3398.81 572.569 3419.51 611.761 3445.95 548C3445.95 548 3503.03 562.607 3547.41 595.881 3566.77 610.401 3586.39 645.48 3591 692.13Z" fill="#D4D4D4" fill-rule="evenodd"/><path d="M3504 415.847C3504 423.559 3494.48 450.994 3482.98 458.583 3479.4 492.503 3458.06 521.264 3430.87 535.79 3430.87 535.79 3415.46 544 3392 544 3365.41 544 3353.19 535.387 3353.19 535.387 3326.45 520.743 3304.73 492.205 3301.05 458.589 3289.53 451.019 3280 423.572 3280 415.847 3280 406.857 3287.28 399.572 3296.25 399.572 3297.14 399.572 3298 399.641 3298.84 399.783 3295.32 379.732 3292.6 359.211 3296.28 339.235 3300.15 318.112 3312.03 296.443 3332.08 288.793 3351.24 281.483 3371.01 279.48 3388.09 279.065 3413.28 278.445 3441.47 282.208 3460.06 293.56 3482.03 306.983 3496.5 326.308 3483.51 400.137 3484.86 399.771 3486.28 399.573 3487.74 399.573 3496.72 399.572 3504 406.857 3504 415.847Z" fill="#D4D4D4" fill-rule="evenodd"/></g></svg>