<svg width="891" height="891" xmlns="http://www.w3.org/2000/svg" xmlns:xlink="http://www.w3.org/1999/xlink" xml:space="preserve" overflow="hidden"><defs><clipPath id="clip0"><rect x="1309" y="406" width="891" height="891"/></clipPath></defs><g clip-path="url(#clip0)" transform="translate(-1309 -406)"><path d="M1838 1130C1741.31 1130 1650.4 1092.35 1582.03 1023.98 1513.65 955.602 1476 864.694 1476 768.001 1476 671.307 1513.65 580.401 1582.03 512.028 1650.4 443.655 1741.31 406 1838 406 1934.69 406 2025.6 443.655 2093.97 512.027 2162.35 580.401 2200 671.307 2200 768 2200 864.694 2162.35 955.602 2093.97 1023.98 2025.6 1092.35 1934.69 1130 1838 1130ZM1838 471.919C1758.92 471.919 1684.56 502.717 1628.64 558.639 1572.72 614.562 1541.92 688.914 1541.92 768.001 1541.92 847.085 1572.72 921.44 1628.64 977.362 1684.56 1033.28 1758.92 1064.08 1838 1064.08 1917.09 1064.08 1991.44 1033.28 2047.36 977.362 2103.28 921.44 2134.08 847.085 2134.08 768.001 2134.08 688.915 2103.28 614.562 2047.36 558.639 1991.44 502.716 1917.09 471.919 1838 471.919Z" fill="#F59E0B" fill-rule="evenodd"/><path d="M1591 1072.08 1372.4 1290.66C1363.96 1299.11 1350.26 1299.11 1341.81 1290.66L1315.34 1264.19C1306.89 1255.75 1306.89 1242.04 1315.34 1233.6L1533.92 1015C1542.36 1025.4 1551.4 1035.42 1560.99 1045.02 1570.58 1054.61 1580.6 1063.64 1591 1072.08Z" fill="#595959" fill-rule="evenodd"/><path d="M2037 951.13C2034.31 954.079 2031.53 956.984 2028.69 959.83 1977.76 1010.88 1910.04 1039 1838 1039 1765.96 1039 1698.24 1010.88 1647.3 959.83 1644.46 956.984 1641.69 954.079 1639 951.13 1643.6 904.48 1663.16 869.401 1682.48 854.881 1726.75 821.607 1783.69 807 1783.69 807L1810.06 870.762 1830.71 831.569 1819.28 813.396C1819.53 813.537 1827.32 816.355 1838 816.355 1848.67 816.355 1856.47 813.537 1856.72 813.396L1845.29 831.569 1865.94 870.762 1892.31 807C1892.31 807 1949.25 821.607 1993.52 854.881 2012.83 869.401 2032.4 904.48 2037 951.13Z" fill="#595959" fill-rule="evenodd"/><path d="M1950 673.847C1950 681.559 1940.48 708.994 1928.98 716.583 1925.4 750.502 1904.06 779.264 1876.87 793.79 1876.87 793.79 1861.46 802 1838 802 1811.41 802 1799.19 793.387 1799.19 793.387 1772.45 778.743 1750.73 750.205 1747.05 716.589 1735.53 709.019 1726 681.572 1726 673.847 1726 664.857 1733.28 657.572 1742.25 657.572 1743.14 657.572 1744 657.64 1744.84 657.783 1741.32 637.732 1738.61 617.211 1742.28 597.235 1746.15 576.112 1758.03 554.443 1778.08 546.792 1797.24 539.483 1817.01 537.48 1834.09 537.065 1859.28 536.445 1887.47 540.208 1906.06 551.56 1928.03 564.983 1942.5 584.308 1929.51 658.136 1930.86 657.771 1932.28 657.573 1933.74 657.573 1942.72 657.572 1950 664.857 1950 673.847Z" fill="#595959" fill-rule="evenodd"/></g></svg>