<svg width="1674" height="2431" xmlns="http://www.w3.org/2000/svg" xmlns:xlink="http://www.w3.org/1999/xlink" xml:space="preserve" overflow="hidden"><defs><clipPath id="clip0"><rect x="1320" y="22" width="1674" height="2431"/></clipPath></defs><g clip-path="url(#clip0)" transform="translate(-1320 -22)"><path d="M1434 22.0302 1434 264.801 1499.22 264.809 1499.22 204.496 1559.5 204.504 1559.5 329.977 1750.17 329.985 1750.17 264.801 1624.68 264.809 1624.68 139.332 1499.23 139.339 1499.23 87.2066 1675.21 87.214 1675.21 209.42 1801.51 209.428 1801.51 383.786 1557.87 383.793 1557.87 448.954 2044.32 448.961 2044.32 693.359 2109.5 693.366 2109.5 139.332 1922.92 139.339 1922.92 329.977 1988.09 329.985 1988.09 204.5 2044.31 204.507 2044.31 383.778 1866.7 383.786 1866.7 144.271 1740.39 144.278 1740.39 87.2066 2288.75 87.214 2288.75 207.779 2353.97 207.782 2353.97 87.2066 2895.83 87.214 2895.83 139.332 2776.84 139.339 2776.84 204.496 2895.83 204.504 2895.83 258.293 2529.97 258.304 2529.97 383.778 2411.8 383.786 2411.8 448.946 2411.83 448.954 2411.83 574.424 2529.97 574.432 2529.97 813.965 2595.14 813.969 2595.14 693.351 2840.4 693.359 2840.4 628.183 2595.14 628.19 2595.14 509.221 2477.01 509.229 2477.01 448.946 2595.14 448.954 2595.14 323.469 2709.22 323.477 2709.22 383.778 2652.58 383.786 2652.78 448.946 2833.88 448.95 2833.88 383.778 2774.39 383.786 2774.39 323.469 2895.83 323.477 2895.83 509.221 2652.99 509.229 2652.99 574.424 2895.83 574.432 2895.83 1234.37 2774.39 1234.37 2774.39 1425 2839.6 1425 2839.6 1299.53 2895.83 1299.53 2895.83 1359.84 2961 1359.84 2961 22 1434 22.0037Z" fill="#BFC3C6" fill-rule="evenodd"/><path d="M2594.69 1486.75 2594.69 1359.68 2476.6 1359.68 2476.6 1061.46 2597.13 1061.46 2597.13 996.216 2353.61 996.216 2353.61 874.034 2288.42 874.042 2288.42 996.216 2044.9 996.216 2044.9 1061.46 2411.42 1061.46 2411.42 1113.59 2287.65 1113.63 2287.65 1178.76 2411.42 1178.76 2411.42 1234.19 2167.07 1234.19 2167.07 1299.36 2411.42 1299.36 2411.42 1359.68 2167.07 1359.68 2167.07 1424.84 2529.54 1424.84 2529.54 1486.75 1987.88 1486.75 1987.88 1178.76 2044.08 1178.76 2044.08 1421.66 2109.23 1421.66 2109.23 1178.76 2230.59 1178.76 2230.59 1113.59 1987.88 1113.63 1987.88 937.566 2229.81 937.566 2229.8 448.659 2288.42 448.666 2288.42 693.097 2476.59 693.105 2476.59 627.92 2353.58 627.927 2353.58 329.673 2476.59 329.68 2476.59 204.177 2712.8 204.185 2712.8 139 2411.42 139.007 2411.42 264.487 2288.42 264.495 2288.42 383.481 2229.8 383.488 2229.8 143.94 2164.62 143.948 2164.62 748.513 1987.88 748.52 1987.88 508.949 1554.58 508.953 1554.58 574.157 1922.73 574.165 1922.73 813.732 2164.62 813.74 2164.62 872.401 1922.73 872.408 1922.73 1113.63 1744.36 1113.63 1744.36 1061.46 1866.53 1061.46 1866.53 629.527 1865.71 629.535 1865.71 627.927 1680.02 627.935 1680.02 693.105 1801.37 693.112 1801.37 996.216 1679.2 996.216 1679.2 1113.63 1555.39 1113.63 1555.39 1424.84 1865.7 1424.84 1865.7 1359.68 1620.54 1359.68 1620.54 1178.76 1922.73 1178.76 1922.73 1234.19 1680.01 1234.19 1680.01 1299.36 1922.73 1299.36 1922.73 1486.75 1499.19 1486.75 1499.19 1061.46 1619.73 1061.46 1619.73 996.216 1499.19 996.254 1499.19 937.566 1744.35 937.566 1744.35 751.011 1679.2 751.015 1679.2 872.408 1499.19 872.412 1499.19 693.105 1555.39 693.109 1555.39 817.012 1620.54 817.015 1620.54 629.527 1619.73 629.535 1619.73 627.927 1499.19 627.935 1499.19 445.394 1434 445.398 1434 1551.96 2835 1552 2835 1486.75 2594.71 1486.75Z" fill="#9A6D16" fill-rule="evenodd"/><path d="M2839 748 2839 1178.14 2718.52 1178.14 2718.52 1421 2653.38 1421 2653.38 1298.76 2594.78 1298.76 2594.78 1298.76 2529.71 1298.76 2529.71 1113.02 2594.78 1113.02 2594.78 1233.6 2653.38 1233.6 2653.38 1113.02 2773.86 1113.02 2773.86 1060.82 2652.56 1060.82 2652.56 995.665 2773.86 995.665 2773.86 813.205 2712.8 813.212 2712.81 937.026 2411.68 937.026 2411.68 813.205 2288 813.212 2288 748 2476.81 748.007 2476.81 871.802 2647.73 871.81 2647.73 748Z" fill="#9A6D16" fill-rule="evenodd"/><path d="M2411 509 2412 509.004 2412 573.996 2411 574 2411 509ZM2411 509 2412 509.004 2412 573.996 2411 574 2411 509ZM2411 509 2412 509.004 2412 573.996 2411 574 2411 509ZM2411 509 2412 509.004 2412 573.996 2411 574 2411 509Z" fill="#9A6D16" fill-rule="evenodd"/><path d="M1434 22.0302 1434 264.801 1499.22 264.809 1499.22 204.496 1559.5 204.504 1559.5 329.977 1750.17 329.985 1750.17 264.801 1624.68 264.809 1624.68 139.332 1499.23 139.339 1499.23 87.2066 1675.21 87.214 1675.21 209.42 1801.51 209.428 1801.51 383.786 1557.87 383.793 1557.87 448.954 2044.32 448.961 2044.32 693.359 2109.5 693.366 2109.5 139.332 1922.92 139.339 1922.92 329.977 1988.09 329.985 1988.09 204.5 2044.31 204.507 2044.31 383.778 1866.7 383.786 1866.7 144.271 1740.39 144.278 1740.39 87.2066 2288.75 87.214 2288.75 207.779 2353.97 207.782 2353.97 87.2066 2895.83 87.214 2895.83 139.332 2776.84 139.339 2776.84 204.496 2895.83 204.504 2895.83 258.293 2529.97 258.304 2529.97 383.778 2411.8 383.786 2411.8 448.946 2411.83 448.954 2411.83 574.424 2529.97 574.432 2529.97 813.965 2595.14 813.969 2595.14 693.351 2840.4 693.359 2840.4 628.183 2595.14 628.19 2595.14 509.221 2477.01 509.229 2477.01 448.946 2595.14 448.954 2595.14 323.469 2709.22 323.477 2709.22 383.778 2652.58 383.786 2652.78 448.946 2833.88 448.95 2833.88 383.778 2774.39 383.786 2774.39 323.469 2895.83 323.477 2895.83 509.221 2652.99 509.229 2652.99 574.424 2895.83 574.432 2895.83 1234.37 2774.39 1234.37 2774.39 1425 2839.6 1425 2839.6 1299.53 2895.83 1299.53 2895.83 1359.84 2961 1359.84 2961 22 1434 22.0037Z" fill="#9A6D16" fill-rule="evenodd"/><path d="M2594.69 1486.75 2594.69 1359.68 2476.6 1359.68 2476.6 1061.46 2597.13 1061.46 2597.13 996.216 2353.61 996.216 2353.61 874.034 2288.42 874.042 2288.42 996.216 2044.9 996.216 2044.9 1061.46 2411.42 1061.46 2411.42 1113.59 2287.65 1113.63 2287.65 1178.76 2411.42 1178.76 2411.42 1234.19 2167.07 1234.19 2167.07 1299.36 2411.42 1299.36 2411.42 1359.68 2167.07 1359.68 2167.07 1424.84 2529.54 1424.84 2529.54 1486.75 1987.88 1486.75 1987.88 1178.76 2044.08 1178.76 2044.08 1421.66 2109.23 1421.66 2109.23 1178.76 2230.59 1178.76 2230.59 1113.59 1987.88 1113.63 1987.88 937.566 2229.81 937.566 2229.8 448.659 2288.42 448.666 2288.42 693.097 2476.59 693.105 2476.59 627.92 2353.58 627.927 2353.58 329.673 2476.59 329.68 2476.59 204.177 2712.8 204.185 2712.8 139 2411.42 139.007 2411.42 264.487 2288.42 264.495 2288.42 383.481 2229.8 383.488 2229.8 143.94 2164.62 143.948 2164.62 748.513 1987.88 748.52 1987.88 508.949 1554.58 508.953 1554.58 574.157 1922.73 574.165 1922.73 813.732 2164.62 813.74 2164.62 872.401 1922.73 872.408 1922.73 1113.63 1744.36 1113.63 1744.36 1061.46 1866.53 1061.46 1866.53 629.527 1865.71 629.535 1865.71 627.927 1680.02 627.935 1680.02 693.105 1801.37 693.112 1801.37 996.216 1679.2 996.216 1679.2 1113.63 1555.39 1113.63 1555.39 1424.84 1865.7 1424.84 1865.7 1359.68 1620.54 1359.68 1620.54 1178.76 1922.73 1178.76 1922.73 1234.19 1680.01 1234.19 1680.01 1299.36 1922.73 1299.36 1922.73 1486.75 1499.19 1486.75 1499.19 1061.46 1619.73 1061.46 1619.73 996.216 1499.19 996.254 1499.19 937.566 1744.35 937.566 1744.35 751.011 1679.2 751.015 1679.2 872.408 1499.19 872.412 1499.19 693.105 1555.39 693.109 1555.39 817.012 1620.54 817.015 1620.54 629.527 1619.73 629.535 1619.73 627.927 1499.19 627.935 1499.19 445.394 1434 445.398 1434 1551.96 2835 1552 2835 1486.75 2594.71 1486.75Z" fill="#9A6D16" fill-rule="evenodd"/><path d="M2839 748 2839 1178.14 2718.52 1178.14 2718.52 1421 2653.38 1421 2653.38 1298.76 2594.78 1298.76 2594.78 1298.76 2529.71 1298.76 2529.71 1113.02 2594.78 1113.02 2594.78 1233.6 2653.38 1233.6 2653.38 1113.02 2773.86 1113.02 2773.86 1060.82 2652.56 1060.82 2652.56 995.665 2773.86 995.665 2773.86 813.205 2712.8 813.212 2712.81 937.026 2411.68 937.026 2411.68 813.205 2288 813.212 2288 748 2476.81 748.007 2476.81 871.802 2647.73 871.81 2647.73 748Z" fill="#9A6D16" fill-rule="evenodd"/><path d="M2411 509 2412 509.004 2412 573.996 2411 574 2411 509ZM2411 509 2412 509.004 2412 573.996 2411 574 2411 509ZM2411 509 2412 509.004 2412 573.996 2411 574 2411 509ZM2411 509 2412 509.004 2412 573.996 2411 574 2411 509Z" fill="#9A6D16" fill-rule="evenodd"/><path d="M1434.01 22.0302 1434.01 264.801 1499.23 264.809 1499.23 204.496 1559.51 204.504 1559.51 329.977 1750.18 329.985 1750.18 264.801 1624.68 264.809 1624.68 139.332 1499.23 139.339 1499.23 87.2066 1675.22 87.214 1675.22 209.42 1801.52 209.428 1801.52 383.786 1557.87 383.793 1557.87 448.954 2044.32 448.961 2044.32 693.359 2109.5 693.366 2109.5 139.332 1922.92 139.339 1922.92 329.977 1988.1 329.985 1988.1 204.5 2044.31 204.507 2044.31 383.778 1866.7 383.786 1866.7 144.271 1740.39 144.278 1740.39 87.2066 2288.76 87.214 2288.76 207.779 2353.97 207.782 2353.97 87.2066 2895.83 87.214 2895.83 139.332 2776.84 139.339 2776.84 204.496 2895.83 204.504 2895.83 258.293 2529.97 258.304 2529.97 383.778 2411.8 383.786 2411.8 448.946 2411.83 448.954 2411.83 574.424 2529.97 574.432 2529.97 813.965 2595.14 813.969 2595.14 693.351 2840.4 693.359 2840.4 628.183 2595.14 628.19 2595.14 509.221 2477.01 509.229 2477.01 448.946 2595.14 448.954 2595.14 323.469 2709.22 323.477 2709.22 383.778 2652.58 383.786 2652.78 448.946 2833.88 448.95 2833.88 383.778 2774.39 383.786 2774.39 323.469 2895.83 323.477 2895.83 509.221 2652.99 509.229 2652.99 574.424 2895.83 574.432 2895.83 1234.37 2774.39 1234.37 2774.39 1425 2839.61 1425 2839.61 1299.53 2895.83 1299.53 2895.83 1359.84 2961 1359.84 2961 22 1434 22.0037Z" fill="#F59E0B" fill-rule="evenodd"/><path d="M2594.69 1486.75 2594.69 1359.68 2476.6 1359.68 2476.6 1061.46 2597.13 1061.46 2597.13 996.216 2353.61 996.216 2353.61 874.034 2288.42 874.042 2288.42 996.216 2044.9 996.216 2044.9 1061.46 2411.42 1061.46 2411.42 1113.59 2287.65 1113.63 2287.65 1178.76 2411.42 1178.76 2411.42 1234.19 2167.07 1234.19 2167.07 1299.36 2411.42 1299.36 2411.42 1359.68 2167.07 1359.68 2167.07 1424.84 2529.54 1424.84 2529.54 1486.75 1987.88 1486.75 1987.88 1178.76 2044.08 1178.76 2044.08 1421.66 2109.23 1421.66 2109.23 1178.76 2230.59 1178.76 2230.59 1113.59 1987.88 1113.63 1987.88 937.566 2229.81 937.566 2229.8 448.659 2288.42 448.666 2288.42 693.097 2476.59 693.105 2476.59 627.92 2353.58 627.927 2353.58 329.676 2476.59 329.684 2476.59 204.177 2712.8 204.185 2712.8 139 2411.42 139.007 2411.42 264.487 2288.42 264.495 2288.42 383.481 2229.8 383.488 2229.8 143.94 2164.62 143.948 2164.62 748.513 1987.88 748.52 1987.88 508.945 1554.58 508.953 1554.58 574.165 1922.73 574.173 1922.73 813.732 2164.62 813.74 2164.62 872.401 1922.73 872.408 1922.73 1113.63 1744.36 1113.63 1744.36 1061.46 1866.53 1061.46 1866.53 629.535 1865.71 629.542 1865.71 627.927 1680.02 627.935 1680.02 693.105 1801.37 693.109 1801.37 996.216 1679.2 996.216 1679.2 1113.59 1555.39 1113.63 1555.39 1424.84 1865.7 1424.84 1865.7 1359.68 1620.54 1359.68 1620.54 1178.76 1922.73 1178.76 1922.73 1234.19 1680.01 1234.19 1680.01 1299.36 1922.73 1299.36 1922.73 1486.75 1499.19 1486.75 1499.19 1061.46 1619.73 1061.46 1619.73 996.216 1499.19 996.254 1499.19 937.566 1744.35 937.566 1744.35 751.011 1679.2 751.015 1679.2 872.404 1499.19 872.412 1499.19 693.105 1555.39 693.109 1555.39 817.008 1620.54 817.015 1620.54 629.535 1619.73 629.542 1619.73 627.927 1499.19 627.935 1499.19 445.391 1434 445.398 1434 1551.96 2835 1552 2835 1486.75 2594.71 1486.75Z" fill="#F59E0B" fill-rule="evenodd"/><path d="M2839 748 2839 1178.14 2718.52 1178.14 2718.52 1421 2653.38 1421 2653.38 1298.76 2594.78 1298.76 2594.78 1298.76 2529.71 1298.76 2529.71 1113.02 2594.78 1113.02 2594.78 1233.6 2653.38 1233.6 2653.38 1113.02 2773.86 1113.02 2773.86 1060.82 2652.56 1060.82 2652.56 995.665 2773.86 995.665 2773.86 813.205 2712.8 813.212 2712.81 937.026 2411.68 937.026 2411.68 813.205 2288 813.212 2288 748 2476.81 748.007 2476.81 871.802 2647.73 871.81 2647.73 748Z" fill="#F59E0B" fill-rule="evenodd"/><path d="M2980.54 1471 2980.54 1471 2748.73 1468.46C2741.47 1468.35 2735.61 1462.47 2735.56 1455.23L2735.56 1455.23 2733.9 1204.7C2733.85 1197.39 2739.69 1191.44 2746.98 1191.29L2746.98 1191.29 2870.32 1189.24 2857.23 1202.69 2852.01 722.991 2865.51 736.156 2617.99 739.615 2631.11 726.208 2631.97 843.687C2632 847.223 2630.61 850.626 2628.13 853.142 2625.64 855.659 2622.26 857.08 2618.72 857.095L2618.72 857.099 2503.77 857.603C2496.47 857.637 2490.51 851.793 2490.4 844.502L2490.4 844.502 2486.66 602.343 2499.95 615.448 2380.36 615.361C2373.08 615.357 2367.15 609.501 2367.06 602.222L2367.06 602.222 2364.06 366.57C2364.02 363.023 2365.39 359.605 2367.87 357.073 2370.36 354.542 2373.76 353.109 2377.3 353.09L2377.3 353.094 2504.51 352.461 2491.27 365.437 2494.53 236.005C2494.71 228.895 2500.45 223.185 2507.55 223.033L2507.55 223.037 2739.39 218.016 2726.37 231.101 2728.41 109.09 2741.8 122.622 2377.83 124.692 2391.06 111.162 2393.06 232.519C2393.12 236.058 2391.76 239.473 2389.3 242.012 2386.83 244.551 2383.45 246.002 2379.91 246.048L2379.91 246.051 2259.53 247.537C2252.19 247.628 2246.17 241.765 2246.05 234.432L2246.05 234.436 2244.23 115.915 2257.49 129.023 2131.93 128.61 2145.29 115.289 2145.67 725.264C2145.67 732.571 2139.79 738.513 2132.48 738.585L2132.48 738.589 2015.83 739.752C2012.27 739.79 2008.84 738.395 2006.31 735.882 2003.79 733.366 2002.37 729.944 2002.39 726.378L2002.39 726.386 2003.56 480.908 2016.68 494.281 1526.71 487.437C1519.53 487.334 1513.72 481.552 1513.59 474.37L1513.59 474.374 1511.35 352.374 1524.92 365.437 1333.57 369.068C1326.21 369.208 1320.14 363.36 1320 356.012 1319.86 348.66 1325.71 342.589 1333.06 342.449L1333.06 342.453 1524.41 338.818C1527.94 338.75 1531.36 340.092 1533.9 342.54 1536.44 344.991 1537.91 348.353 1537.97 351.885L1537.97 351.885 1540.21 473.881 1527.09 460.815 2017.05 467.662C2024.36 467.765 2030.22 473.734 2030.18 481.036L2030.18 481.036 2029.01 726.507 2015.57 713.134 2132.22 711.966 2119.04 725.283 2118.66 115.308C2118.66 111.769 2120.07 108.373 2122.57 105.872 2125.08 103.375 2128.48 101.976 2132.02 101.988L2132.02 101.992 2257.58 102.401C2264.84 102.424 2270.74 108.252 2270.85 115.505L2270.85 115.509 2272.67 234.023 2259.2 220.918 2379.58 219.425 2366.44 232.954 2364.44 111.602C2364.38 108.047 2365.75 104.618 2368.23 102.075 2370.72 99.5319 2374.12 98.0921 2377.67 98.073L2377.67 98.073 2741.64 95.9999C2745.23 95.9813 2748.67 97.4062 2751.18 99.9525 2753.7 102.499 2755.09 105.956 2755.03 109.537L2755.03 109.537 2752.99 231.548C2752.87 238.699 2747.12 244.478 2739.97 244.63L2739.97 244.634 2508.13 249.648 2521.15 236.676 2517.88 366.111C2517.7 373.304 2511.83 379.049 2504.64 379.083L2504.64 379.087 2377.43 379.712 2390.68 366.233 2393.68 601.881 2380.38 588.738 2499.97 588.825C2507.24 588.833 2513.16 594.665 2513.27 601.93L2513.27 601.934 2517.02 844.089 2503.65 830.984 2618.6 830.473 2605.35 843.884 2604.49 726.405C2604.44 719.087 2610.3 713.099 2617.62 712.997L2617.62 713.001 2865.14 709.537C2868.68 709.488 2872.09 710.852 2874.62 713.319 2877.15 715.79 2878.6 719.167 2878.64 722.703L2878.64 722.706 2883.85 1202.39C2883.93 1209.7 2878.09 1215.73 2870.76 1215.84L2870.76 1215.84 2747.43 1217.93 2760.52 1204.51 2762.18 1455.05 2749.02 1441.82 2980.84 1444.4C2988.19 1444.47 2994.08 1450.5 2994 1457.85 2993.92 1465.2 2987.89 1471.08 2980.54 1471Z" fill-rule="evenodd"/><path d="M1913.56 1319 1913.01 1319.42 1912.58 1319.79 1912.27 1320.13 1912.08 1320.38 1912 1320.58 1912.04 1320.79 1912.19 1320.92 1912.46 1320.96 1912.85 1321C1913.07 1321 1913.45 1320.96 1914 1320.88 1913.89 1320.42 1913.75 1319.75 1913.58 1319L1913.56 1319Z" fill="#FDD908" fill-rule="evenodd"/><path d="M2634 2407.04 2629.75 2413.29C2609.61 2425.87 2550.68 2435.96 2452.95 2443.49 2354.55 2451.02 2238.68 2454.07 2105.34 2452.67 1978.07 2450.68 1876.29 2444.84 1799.99 2435.17 1775.55 2432.04 1755.41 2428.65 1739.58 2424.96L1719.63 2419.28C1708.67 2415.36 1703.12 2411.3 1703 2407.04 1706.33 2393.98 1751.78 2383.14 1839.34 2374.48 1926.91 2365.82 2036.63 2361.34 2168.5 2361 2300.37 2361.34 2410.09 2365.82 2497.66 2374.48 2585.23 2383.14 2630.67 2394.02 2634 2407.04" fill="#000000" fill-rule="evenodd" fill-opacity="0.219608"/><path d="M2318.33 1692 2362 1706.11C2352.02 1723.56 2344.22 1734.59 2338.61 1739.2 2336.56 1741.31 2332.97 1743.62 2327.83 1746.16 2324.14 1747.85 2318.87 1749.46 2312 1751L2318.33 1692" fill="#FEC0B6" fill-rule="evenodd"/><path d="M2013 1713.16 2014.69 1716.2C2022.01 1729.75 2028.3 1739.81 2033.56 1746.34 2038.23 1752.35 2045.41 1758.58 2055.11 1765L2063 1707 2013 1713.16" fill="#FEC0B6" fill-rule="evenodd"/><path d="M2144.73 1182.64 2143.21 1180.09C2135.05 1166.76 2129.62 1155.3 2126.92 1145.71 2123.36 1133.87 2120.83 1120.7 2119.3 1106.16 2117.78 1094.62 2117.59 1083.12 2118.73 1071.66 2119.42 1066.03 2120.8 1060.51 2122.86 1055.18 2125.86 1048.67 2127.91 1044.82 2129.02 1043.68 2135.92 1033.63 2145.5 1025.79 2157.78 1020.19 2168.38 1015.66 2179.31 1013.61 2190.57 1014.06 2213.09 1014.71 2230.39 1025.06 2242.48 1045.13 2244.47 1048.59 2246.22 1052.29 2247.73 1056.24L2249.8 1062.26C2251.05 1066.33 2252.03 1070.6 2252.73 1075.01 2254.16 1083.88 2254.38 1093.14 2253.4 1102.69 2250.88 1124.24 2242.38 1151.65 2227.9 1185L2144.73 1182.64" fill-rule="evenodd"/><path d="M2144.32 1210.71 2227.77 1213C2227.22 1206.09 2227.67 1199.37 2229.12 1192.95 2230.25 1187.04 2233.68 1175.2 2239.4 1157.48 2242.54 1160.42 2245.15 1160.42 2247.24 1157.37 2250.87 1151.68 2253.43 1145.07 2254.93 1137.51 2256.25 1132.05 2256.35 1126.48 2255.24 1120.83 2253.92 1115.9 2252.13 1113.31 2249.85 1113 2248.42 1113.04 2247.24 1114.3 2246.33 1116.74L2240.95 1138.28C2239.1 1144.5 2237.85 1148.2 2237.2 1149.35 2235.82 1153.09 2233.17 1157.33 2229.23 1162.14 2223.38 1168.1 2218.08 1171.88 2213.31 1173.56 2205.65 1176.65 2197.67 1178.18 2189.36 1178.14 2179.81 1178.14 2170.6 1176.92 2161.75 1174.47 2154.87 1172.37 2150.97 1170.96 2150.06 1170.31 2145.5 1168.17 2141.92 1165.81 2139.32 1163.17 2137.05 1161.26 2134.77 1157.71 2132.48 1152.52 2131.35 1149.5 2130.41 1146.45 2129.64 1143.36 2127.36 1130.53 2125.83 1123.16 2125.05 1121.25 2123.88 1117.24 2122.71 1115.83 2121.52 1117.01 2117.5 1125.37 2116.92 1136.29 2119.78 1149.73 2121.27 1155.31 2123 1158.93 2124.97 1160.58 2126.53 1161.99 2128.76 1161.8 2131.67 1159.96L2144.32 1210.71" fill="#FFC1B6" fill-rule="evenodd"/><path d="M2134 1231.21 2141.8 1199.91C2166.58 1199.87 2195.46 1199.57 2228.42 1199L2233 1235 2134 1231.21" fill="#FFFFFF" fill-rule="evenodd"/><path d="M2101.01 2398.6 2102.08 2402.2C2112.2 2430.06 2102.53 2442.95 2073.08 2440.86 2062.71 2440.67 2055.11 2439.65 2050.27 2437.79 2044.84 2436.28 2040.79 2432.49 2038.1 2426.42 2029.31 2425.1 2023.84 2423.5 2021.69 2421.69 2016.95 2419.75 2013.66 2413.42 2011.82 2402.77 2008.96 2383.67 2019.72 2377.04 2044.1 2382.8 2031.29 2344.06 2025.6 2302.53 2027.04 2258.14 2027.52 2244.42 2028.62 2229.3 2030.34 2212.66 2041.45 2119.12 2046.91 2070.12 2046.7 2065.57 2049.17 2039 2051.64 1996.85 2054.12 1939.13 2048.86 1798.75 2048.2 1707.03 2052.15 1663.97 2052.36 1657.19 2054.04 1642.22 2057.21 1619.02 2058.25 1609.85 2062.88 1587.11 2071.1 1550.8 2073.01 1539.32 2073.82 1532.72 2073.51 1530.98 2073.65 1512.82 2068.45 1494.18 2057.89 1475 2052.72 1508.39 2049.67 1535.98 2048.76 1557.77 2045.72 1585.33 2051.6 1633.84 2066.42 1703.24L2015.03 1732.76 2012.6 1722.98C1991.58 1642.86 1981.1 1577.52 1981.16 1527.04 1979.55 1481.36 1989.97 1400.41 2012.42 1284.2 2060.07 1271.28 2100.4 1249.83 2133.4 1219.93 2150.31 1216.06 2164.29 1214.09 2175.35 1214.01 2189.15 1213.86 2207.65 1215.11 2230.87 1217.84 2262.64 1246.65 2300.18 1265.14 2343.46 1273.36 2375.39 1399.58 2391.8 1481.55 2392.69 1519.3L2395 1570.36 2376.69 1717.71C2345.87 1722.04 2327.5 1717.64 2321.59 1704.53 2317.61 1693.91 2316.04 1683.49 2316.87 1673.26L2321.56 1605.07C2321.99 1601.55 2322.07 1591.39 2321.8 1574.64 2320.46 1548.26 2317.39 1522.68 2312.58 1497.85 2311.47 1491.6 2310.34 1485.34 2309.19 1479.13 2297.33 1510.09 2291.97 1532.11 2293.12 1545.23 2293.91 1556.18 2294.84 1562.74 2295.92 1564.9 2310.35 1604.43 2317.75 1627.21 2318.13 1633.31 2321.89 1649 2324.37 1668.67 2325.56 1692.28 2327.64 1746.67 2323.4 1831.95 2312.84 1948.08L2313.85 2114.8 2324.08 2374.65C2348.12 2360.85 2358.42 2364.76 2354.96 2386.4 2352.03 2395.69 2347.73 2402.55 2342.07 2406.94L2295.74 2440.86C2267.82 2450.26 2250.62 2448.86 2244.15 2436.69 2240.98 2431.5 2242.2 2417.21 2247.8 2393.79 2232.56 2287.67 2225.71 2236.92 2227.25 2241.66 2225.83 2233.17 2225.71 2210.27 2226.88 2172.98 2226.7 2163.66 2225.91 2152.06 2224.49 2138.19L2195.99 1922.42 2184.44 1846.08C2167.79 1919.16 2151 2003.56 2134.06 2099.38L2101.01 2398.6" fill-rule="evenodd"/></g></svg>