<svg width="4892" height="1859" xmlns="http://www.w3.org/2000/svg" xmlns:xlink="http://www.w3.org/1999/xlink" xml:space="preserve" overflow="hidden">
<g transform="translate(192 -98)">
<text fill="#F59E0B" font-family="Posterama,Posterama_MSFontService,sans-serif" font-weight="400" font-size="885" transform="matrix(1 0 0 1 339.968 1196)">J</text><text fill="#F59E0B" font-family="Posterama,Posterama_MSFontService,sans-serif" font-weight="400" font-size="885" transform="matrix(1 0 0 1 1465.18 1196)">BLENS</text>
<path d="M1090 1276C993.306 1276 902.4 1238.35 834.028 1169.98 765.654 1101.6 728 1010.69 728 914.001 728 817.307 765.654 726.401 834.028 658.028 902.4 589.655 993.306 552 1090 552 1186.69 552 1277.6 589.655 1345.97 658.028 1414.35 726.401 1452 817.307 1452 914.001 1452 1010.69 1414.35 1101.6 1345.97 1169.98 1277.6 1238.35 1186.69 1276 1090 1276ZM1090 617.919C1010.92 617.919 936.561 648.717 880.639 704.639 824.716 760.562 793.918 834.914 793.918 914.001 793.918 993.085 824.716 1067.44 880.639 1123.36 936.561 1179.28 1010.92 1210.08 1090 1210.08 1169.09 1210.08 1243.44 1179.28 1299.36 1123.36 1355.28 1067.44 1386.08 993.085 1386.08 914.001 1386.08 834.915 1355.28 760.562 1299.36 704.639 1243.44 648.716 1169.09 617.919 1090 617.919Z" fill="#F59E0B" fill-rule="evenodd"/><path d="M843 1218.08 624.398 1436.66C615.964 1445.11 602.257 1445.11 593.808 1436.66L567.336 1410.19C558.888 1401.75 558.888 1388.04 567.336 1379.6L785.924 1161C794.359 1171.4 803.398 1181.42 812.989 1191.02 822.581 1200.61 832.602 1209.64 843 1218.08Z" fill="#595959" fill-rule="evenodd"/><path d="M1290 1096.13C1287.3 1099.08 1284.52 1101.98 1281.67 1104.83 1230.61 1155.88 1162.72 1184 1090.5 1184 1018.28 1184 950.388 1155.88 899.321 1104.83 896.475 1101.98 893.694 1099.08 891 1096.13 895.608 1049.48 915.221 1014.4 934.585 999.881 978.967 966.607 1036.05 952 1036.05 952L1062.49 1015.76 1083.19 976.569 1071.74 958.396C1071.98 958.536 1079.79 961.355 1090.5 961.355 1101.2 961.355 1109.02 958.536 1109.26 958.396L1097.81 976.569 1118.51 1015.76 1144.95 952C1144.95 952 1202.03 966.607 1246.41 999.881 1265.77 1014.4 1285.39 1049.48 1290 1096.13Z" fill="#595959" fill-rule="evenodd"/><path d="M1202 819.847C1202 827.559 1192.48 854.994 1180.98 862.583 1177.4 896.503 1156.06 925.264 1128.87 939.79 1128.87 939.79 1113.46 948 1090 948 1063.41 948 1051.19 939.387 1051.19 939.387 1024.45 924.743 1002.73 896.205 999.046 862.589 987.53 855.019 978 827.572 978 819.847 978 810.857 985.282 803.572 994.255 803.572 995.137 803.572 995.998 803.64 996.837 803.783 993.323 783.732 990.605 763.211 994.276 743.235 998.148 722.112 1010.03 700.443 1030.08 692.793 1049.24 685.483 1069.01 683.48 1086.09 683.065 1111.28 682.445 1139.47 686.208 1158.06 697.56 1180.03 710.983 1194.5 730.308 1181.51 804.137 1182.86 803.771 1184.28 803.573 1185.74 803.573 1194.72 803.572 1202 810.857 1202 819.847Z" 
    fill="#595959" fill-rule="evenodd"/></g></svg>